#N canvas 0 29 1364 737 10;
#X obj 33 414 r \$0-in;
#X obj 10 510 outlet;
#X obj 10 30 hsl 128 15 0.1 10 0 0 \$0-thing/params/attack \$0-thing/params/attack
attack -2 -6 0 10 -262144 -1 -1 513 1;
#X obj 160 30 nbx 5 14 0.1 10 0 0 \$0-thing/params/attack \$0-thing/params/attack
empty 0 -6 0 10 -262144 -1 -1 0.5 256;
#X obj 10 60 hsl 128 15 0.1 50 0 0 \$0-thing/params/decay \$0-thing/params/decay
decay -2 -6 0 10 -262144 -1 -1 102 1;
#X obj 160 60 nbx 5 14 0.1 50 0 0 \$0-thing/params/decay \$0-thing/params/decay
empty 0 -6 0 10 -262144 -1 -1 0.5 256;
#X obj 10 90 hsl 128 15 1 10 0 0 \$0-thing/params/knee-neg \$0-thing/params/knee-neg
knee-neg -2 -6 0 10 -262144 -1 -1 1411 1;
#X obj 160 90 nbx 5 14 1 10 0 0 \$0-thing/params/knee-neg \$0-thing/params/knee-neg
empty 0 -6 0 10 -262144 -1 -1 2 256;
#X obj 10 120 hsl 128 15 1 10 0 0 \$0-thing/params/knee-pos \$0-thing/params/knee-pos
knee-pos -2 -6 0 10 -262144 -1 -1 1411 1;
#X obj 160 120 nbx 5 14 1 10 0 0 \$0-thing/params/knee-pos \$0-thing/params/knee-pos
empty 0 -6 0 10 -262144 -1 -1 2 256;
#X obj 10 150 hsl 128 15 0.001 1 0 0 \$0-thing/params/limit-neg \$0-thing/params/limit-neg
limit-neg -2 -6 0 10 -262144 -1 -1 1259 1;
#X obj 160 150 nbx 5 14 0.001 1 0 0 \$0-thing/params/limit-neg \$0-thing/params/limit-neg
empty 0 -6 0 10 -262144 -1 -1 0.1 256;
#X obj 10 180 hsl 128 15 0.001 1 0 0 \$0-thing/params/limit-pos \$0-thing/params/limit-pos
limit-pos -2 -6 0 10 -262144 -1 -1 1259 1;
#X obj 160 180 nbx 5 14 0.001 1 0 0 \$0-thing/params/limit-pos \$0-thing/params/limit-pos
empty 0 -6 0 10 -262144 -1 -1 0.1 256;
#X obj 10 210 hsl 128 15 0 1 0 0 \$0-thing/params/noise \$0-thing/params/noise
noise -2 -6 0 10 -262144 -1 -1 1270 1;
#X obj 160 210 nbx 5 14 0 1 0 0 \$0-thing/params/noise \$0-thing/params/noise
empty 0 -6 0 10 -262144 -1 -1 0.1 256;
#X obj 10 240 hsl 128 15 0.1 10 0 0 \$0-thing/params/res \$0-thing/params/res
res -2 -6 0 10 -262144 -1 -1 1155 1;
#X obj 160 240 nbx 5 14 0.1 10 0 0 \$0-thing/params/res \$0-thing/params/res
empty 0 -6 0 10 -262144 -1 -1 1 256;
#X obj 10 270 hsl 128 15 -1 1 0 0 \$0-thing/params/sign \$0-thing/params/sign
sign -2 -6 0 10 -262144 -1 -1 12700 1;
#X obj 160 270 nbx 5 14 -1 1 0 0 \$0-thing/params/sign \$0-thing/params/sign
empty 0 -6 0 10 -262144 -1 -1 1 256;
#X obj 235 30 vsl 15 128 50 1000 0 0 \$0-thing/string1/freq \$0-thing/string1/freq
freq 0 -8 0 10 -262144 -1 -1 5214 1;
#X obj 235 170 nbx 5 14 50 1000 0 0 \$0-thing/string1/freq \$0-thing/string1/freq
empty 0 -6 0 10 -262144 -1 -1 440 256;
#X obj 310 30 bng 15 250 50 0 \$0-thing/string1/gate \$0-thing/string1/gate
gate 0 -6 0 10 -262144 -1 -1;
#X obj 360 30 vsl 15 128 50 1000 0 0 \$0-thing/string2/freq \$0-thing/string2/freq
freq 0 -8 0 10 -262144 -1 -1 5214 1;
#X obj 360 170 nbx 5 14 50 1000 0 0 \$0-thing/string2/freq \$0-thing/string2/freq
empty 0 -6 0 10 -262144 -1 -1 440 256;
#X obj 435 30 bng 15 250 50 0 \$0-thing/string2/gate \$0-thing/string2/gate
gate 0 -6 0 10 -262144 -1 -1;
#X obj 485 30 vsl 15 128 50 1000 0 0 \$0-thing/string3/freq \$0-thing/string3/freq
freq 0 -8 0 10 -262144 -1 -1 5214 1;
#X obj 485 170 nbx 5 14 50 1000 0 0 \$0-thing/string3/freq \$0-thing/string3/freq
empty 0 -6 0 10 -262144 -1 -1 440 256;
#X obj 560 30 bng 15 250 50 0 \$0-thing/string3/gate \$0-thing/string3/gate
gate 0 -6 0 10 -262144 -1 -1;
#X obj 610 30 vsl 15 128 50 1000 0 0 \$0-thing/string4/freq \$0-thing/string4/freq
freq 0 -8 0 10 -262144 -1 -1 5214 1;
#X obj 610 170 nbx 5 14 50 1000 0 0 \$0-thing/string4/freq \$0-thing/string4/freq
empty 0 -6 0 10 -262144 -1 -1 440 256;
#X obj 685 30 bng 15 250 50 0 \$0-thing/string4/gate \$0-thing/string4/gate
gate 0 -6 0 10 -262144 -1 -1;
#X obj 697 3 bng 15 250 50 1 \$0-init \$0-ignore empty 0 -6 0 10 -262144
-1 -1;
#X obj 717 3 tgl 15 1 \$0-active \$0-active empty 0 -6 0 10 -262144
-1 -1 1 1;
#X obj 765 10 r \$0-init;
#X obj 1005 10 s \$0-in;
#X obj 1125 10 s \$0-read;
#X obj 1245 10 r \$0-write;
#X msg 765 30 1;
#X obj 765 50 s \$0-active;
#X obj 1005 30 r \$0-active;
#X msg 1005 50 active \$1;
#X obj 1245 30 route active;
#X obj 1245 50 s \$0-active;
#X msg 765 70 0.5;
#X obj 765 90 s \$0-thing/params/attack;
#X obj 1005 70 r \$0-thing/params/attack;
#X msg 1005 90 /thing/params/attack \$1;
#X obj 1245 70 route /thing/params/attack;
#X obj 1245 90 s \$0-thing/params/attack;
#X msg 765 110 0.5;
#X obj 765 130 s \$0-thing/params/decay;
#X obj 1005 110 r \$0-thing/params/decay;
#X msg 1005 130 /thing/params/decay \$1;
#X obj 1245 110 route /thing/params/decay;
#X obj 1245 130 s \$0-thing/params/decay;
#X msg 765 150 2;
#X obj 765 170 s \$0-thing/params/knee-neg;
#X obj 1005 150 r \$0-thing/params/knee-neg;
#X msg 1005 170 /thing/params/knee-neg \$1;
#X obj 1245 150 route /thing/params/knee-neg;
#X obj 1245 170 s \$0-thing/params/knee-neg;
#X msg 765 190 2;
#X obj 765 210 s \$0-thing/params/knee-pos;
#X obj 1005 190 r \$0-thing/params/knee-pos;
#X msg 1005 210 /thing/params/knee-pos \$1;
#X obj 1245 190 route /thing/params/knee-pos;
#X obj 1245 210 s \$0-thing/params/knee-pos;
#X msg 765 230 0.1;
#X obj 765 250 s \$0-thing/params/limit-neg;
#X obj 1005 230 r \$0-thing/params/limit-neg;
#X msg 1005 250 /thing/params/limit-neg \$1;
#X obj 1245 230 route /thing/params/limit-neg;
#X obj 1245 250 s \$0-thing/params/limit-neg;
#X msg 765 270 0.1;
#X obj 765 290 s \$0-thing/params/limit-pos;
#X obj 1005 270 r \$0-thing/params/limit-pos;
#X msg 1005 290 /thing/params/limit-pos \$1;
#X obj 1245 270 route /thing/params/limit-pos;
#X obj 1245 290 s \$0-thing/params/limit-pos;
#X msg 765 310 0.1;
#X obj 765 330 s \$0-thing/params/noise;
#X obj 1005 310 r \$0-thing/params/noise;
#X msg 1005 330 /thing/params/noise \$1;
#X obj 1245 310 route /thing/params/noise;
#X obj 1245 330 s \$0-thing/params/noise;
#X msg 765 350 1;
#X obj 765 370 s \$0-thing/params/res;
#X obj 1005 350 r \$0-thing/params/res;
#X msg 1005 370 /thing/params/res \$1;
#X obj 1245 350 route /thing/params/res;
#X obj 1245 370 s \$0-thing/params/res;
#X msg 765 390 1;
#X obj 765 410 s \$0-thing/params/sign;
#X obj 1005 390 r \$0-thing/params/sign;
#X msg 1005 410 /thing/params/sign \$1;
#X obj 1245 390 route /thing/params/sign;
#X obj 1245 410 s \$0-thing/params/sign;
#X msg 765 430 440;
#X obj 765 450 s \$0-thing/string1/freq;
#X obj 1005 430 r \$0-thing/string1/freq;
#X msg 1005 450 /thing/string1/freq \$1;
#X obj 1245 430 route /thing/string1/freq;
#X obj 1245 450 s \$0-thing/string1/freq;
#X msg 765 470 0;
#X obj 765 490 faust-s \$0-thing/string1/gate;
#X obj 1005 470 r \$0-thing/string1/gate;
#X obj 1005 490 faust-r /thing/string1/gate;
#X obj 1245 470 route /thing/string1/gate;
#X obj 1245 490 faust-s \$0-thing/string1/gate;
#X msg 765 510 440;
#X obj 765 530 s \$0-thing/string2/freq;
#X obj 1005 510 r \$0-thing/string2/freq;
#X msg 1005 530 /thing/string2/freq \$1;
#X obj 1245 510 route /thing/string2/freq;
#X obj 1245 530 s \$0-thing/string2/freq;
#X msg 765 550 0;
#X obj 765 570 faust-s \$0-thing/string2/gate;
#X obj 1005 550 r \$0-thing/string2/gate;
#X obj 1005 570 faust-r /thing/string2/gate;
#X obj 1245 550 route /thing/string2/gate;
#X obj 1245 570 faust-s \$0-thing/string2/gate;
#X msg 765 590 440;
#X obj 765 610 s \$0-thing/string3/freq;
#X obj 1005 590 r \$0-thing/string3/freq;
#X msg 1005 610 /thing/string3/freq \$1;
#X obj 1245 590 route /thing/string3/freq;
#X obj 1245 610 s \$0-thing/string3/freq;
#X msg 765 630 0;
#X obj 765 650 faust-s \$0-thing/string3/gate;
#X obj 1005 630 r \$0-thing/string3/gate;
#X obj 1005 650 faust-r /thing/string3/gate;
#X obj 1245 630 route /thing/string3/gate;
#X obj 1245 650 faust-s \$0-thing/string3/gate;
#X msg 765 670 440;
#X obj 765 690 s \$0-thing/string4/freq;
#X obj 1005 670 r \$0-thing/string4/freq;
#X msg 1005 690 /thing/string4/freq \$1;
#X obj 1245 670 route /thing/string4/freq;
#X obj 1245 690 s \$0-thing/string4/freq;
#X msg 765 710 0;
#X obj 765 730 faust-s \$0-thing/string4/gate;
#X obj 1005 710 r \$0-thing/string4/gate;
#X obj 1005 730 faust-r /thing/string4/gate;
#X obj 1245 710 route /thing/string4/gate;
#X obj 1245 730 faust-s \$0-thing/string4/gate;
#X text 0 310 Generated Sun Feb 3 19:59:45 2019 by faust2pd v2.16.
See http://faust.grame.fr and http://purelang.bitbucket.org.;
#X connect 0 0 1 0;
#X connect 34 0 44 0;
#X connect 34 0 50 0;
#X connect 34 0 56 0;
#X connect 34 0 62 0;
#X connect 34 0 68 0;
#X connect 34 0 74 0;
#X connect 34 0 80 0;
#X connect 34 0 86 0;
#X connect 34 0 92 0;
#X connect 34 0 98 0;
#X connect 34 0 104 0;
#X connect 34 0 110 0;
#X connect 34 0 116 0;
#X connect 34 0 122 0;
#X connect 34 0 128 0;
#X connect 34 0 134 0;
#X connect 34 0 140 0;
#X connect 37 0 42 0;
#X connect 38 0 39 0;
#X connect 40 0 41 0;
#X connect 41 0 35 0;
#X connect 42 0 43 0;
#X connect 42 1 48 0;
#X connect 44 0 45 0;
#X connect 46 0 47 0;
#X connect 47 0 35 0;
#X connect 48 0 49 0;
#X connect 48 1 54 0;
#X connect 50 0 51 0;
#X connect 52 0 53 0;
#X connect 53 0 35 0;
#X connect 54 0 55 0;
#X connect 54 1 60 0;
#X connect 56 0 57 0;
#X connect 58 0 59 0;
#X connect 59 0 35 0;
#X connect 60 0 61 0;
#X connect 60 1 66 0;
#X connect 62 0 63 0;
#X connect 64 0 65 0;
#X connect 65 0 35 0;
#X connect 66 0 67 0;
#X connect 66 1 72 0;
#X connect 68 0 69 0;
#X connect 70 0 71 0;
#X connect 71 0 35 0;
#X connect 72 0 73 0;
#X connect 72 1 78 0;
#X connect 74 0 75 0;
#X connect 76 0 77 0;
#X connect 77 0 35 0;
#X connect 78 0 79 0;
#X connect 78 1 84 0;
#X connect 80 0 81 0;
#X connect 82 0 83 0;
#X connect 83 0 35 0;
#X connect 84 0 85 0;
#X connect 84 1 90 0;
#X connect 86 0 87 0;
#X connect 88 0 89 0;
#X connect 89 0 35 0;
#X connect 90 0 91 0;
#X connect 90 1 96 0;
#X connect 92 0 93 0;
#X connect 94 0 95 0;
#X connect 95 0 35 0;
#X connect 96 0 97 0;
#X connect 96 1 102 0;
#X connect 98 0 99 0;
#X connect 100 0 101 0;
#X connect 101 0 35 0;
#X connect 102 0 103 0;
#X connect 102 1 108 0;
#X connect 104 0 105 0;
#X connect 106 0 107 0;
#X connect 107 0 35 0;
#X connect 108 0 109 0;
#X connect 108 1 114 0;
#X connect 110 0 111 0;
#X connect 112 0 113 0;
#X connect 113 0 35 0;
#X connect 114 0 115 0;
#X connect 114 1 120 0;
#X connect 116 0 117 0;
#X connect 118 0 119 0;
#X connect 119 0 35 0;
#X connect 120 0 121 0;
#X connect 120 1 126 0;
#X connect 122 0 123 0;
#X connect 124 0 125 0;
#X connect 125 0 35 0;
#X connect 126 0 127 0;
#X connect 126 1 132 0;
#X connect 128 0 129 0;
#X connect 130 0 131 0;
#X connect 131 0 35 0;
#X connect 132 0 133 0;
#X connect 132 1 138 0;
#X connect 134 0 135 0;
#X connect 136 0 137 0;
#X connect 137 0 35 0;
#X connect 138 0 139 0;
#X connect 138 1 144 0;
#X connect 140 0 141 0;
#X connect 142 0 143 0;
#X connect 143 0 35 0;
#X connect 144 0 145 0;
#X coords 0 -1 1 1 735 290 1 0 0;
